HIERARCHY
ROOT Hips
{
	OFFSET 0.00 0.00 0.00
	CHANNELS 6 Xposition Yposition Zposition Xrotation Yrotation Zrotation
	JOINT Spine
	{
		OFFSET 0.00000 7.06766 0.00000
		CHANNELS 3 Xrotation Yrotation Zrotation
		JOINT Head
		{
			OFFSET 0.00000 15.03989 0.00000
			CHANNELS 3 Xrotation Yrotation Zrotation
			End Site
			{
				OFFSET 0.00000 4.52755 0.00000
			}
		}
		JOINT LeftShoulder
		{
			OFFSET 0.00000 10.53037 0.00000
			CHANNELS 3 Xrotation Yrotation Zrotation
			JOINT LeftArm
			{
				OFFSET 7.02886 0.00000 0.00000
				CHANNELS 3 Xrotation Yrotation Zrotation
				JOINT LeftForeArm
				{
					OFFSET 10.79770 0.00000 0.00000
					CHANNELS 3 Yrotation Zrotation Xrotation
					JOINT LeftHand
					{
						OFFSET 7.90744 0.00000 0.00000
						CHANNELS 3 Xrotation Yrotation Zrotation
						JOINT LeftHandThumb1
						{
							OFFSET 0.00000 0.00000 0.00000
							CHANNELS 3 Xrotation Zrotation Yrotation
							End Site
							{
								OFFSET 0.00000 0.00000 3.93700
							}
						}
						End Site
						{
							OFFSET 3.93700 0.00000 0.00000
						}
					}
				}
			}
		}
		JOINT RightShoulder
		{
			OFFSET 0.00000 10.53037 0.00000
			CHANNELS 3 Xrotation Yrotation Zrotation
			JOINT RightArm
			{
				OFFSET -7.02886 0.00000 0.00000
				CHANNELS 3 Xrotation Yrotation Zrotation
				JOINT RightForeArm
				{
					OFFSET -10.79770 0.00000 0.00000
					CHANNELS 3 Yrotation Zrotation Xrotation
					JOINT RightHand
					{
						OFFSET -7.90744 0.00000 0.00000
						CHANNELS 3 Xrotation Yrotation Zrotation
						JOINT RightHandThumb1
						{
							OFFSET 0.00000 0.00000 0.00000
							CHANNELS 3 Xrotation Zrotation Yrotation
							End Site
							{
								OFFSET 0.00000 0.00000 3.93700
							}
						}
						End Site
						{
							OFFSET -3.93700 0.00000 0.00000
						}
					}
				}
			}
		}
	}
	JOINT LeftUpLeg
	{
		OFFSET 4.01300 0.00000 0.00000
		CHANNELS 3 Xrotation Yrotation Zrotation
		JOINT LeftLeg
		{
			OFFSET 0.00000 -16.89976 0.00000
			CHANNELS 3 Xrotation Yrotation Zrotation
			JOINT LeftFoot
			{
				OFFSET 0.00000 -17.38918 0.00000
				CHANNELS 3 Xrotation Yrotation Zrotation
				JOINT LeftToeBase
				{
					OFFSET 0.00000 -1.27456 4.75673
					CHANNELS 3 Xrotation Yrotation Zrotation
					End Site
					{
						OFFSET 0.00000 0.00000 2.95275
					}
				}
			}
		}
	}
	JOINT RightUpLeg
	{
		OFFSET -4.01300 0.00000 0.00000
		CHANNELS 3 Xrotation Yrotation Zrotation
		JOINT RightLeg
		{
			OFFSET 0.00000 -16.89976 0.00000
			CHANNELS 3 Xrotation Yrotation Zrotation
			JOINT RightFoot
			{
				OFFSET 0.00000 -17.38918 0.00000
				CHANNELS 3 Xrotation Yrotation Zrotation
				JOINT RightToeBase
				{
					OFFSET 0.00000 -1.27456 4.75673
					CHANNELS 3 Xrotation Yrotation Zrotation
					End Site
					{
						OFFSET 0.00000 0.00000 2.95275
					}
				}
			}
		}
	}
}
MOTION
Frames: 13
Frame Time: 0.008333
 20.1365 35.3366 -24.9021 120.1603 86.2540 -121.5474 -12.4704 -0.1582 2.1027 4.2358 1.5506 -2.6394 -32.1774 7.0599 17.4198 -0.8996 -2.8671 -9.1063 2.4720 0.0000 7.7318 0.6631 9.9173 -3.8447 33.1476 -0.0000 26.2537 3.9396 -15.3664 -10.6303 -41.8970 -1.8420 11.2940 5.6244 -0.0000 36.0461 0.9180 -9.2754 5.6776 32.8623 0.0000 -24.3270 7.2093 8.4462 1.2047 -5.8874 0.0000 -0.0000 -20.0936 26.6329 4.8835 25.4035 0.0000 -0.0000 6.7348 -8.4796 0.7220 -3.5885 -0.0000 -0.0000 -19.2237 -26.0844 1.4514 23.5055 -0.0000 -0.0000
 20.1334 35.3371 -24.9018 120.0956 86.2587 -121.4807 -12.4537 -0.1720 2.0927 4.2869 1.5861 -2.6114 -32.1489 7.0810 17.4301 -0.9293 -2.8719 -9.1124 2.4756 0.0000 7.7267 0.6574 9.8933 -3.8210 33.1476 -0.0000 26.2537 3.9738 -15.3627 -10.6246 -41.9270 -1.8270 11.3247 5.5937 -0.0000 36.0281 0.9143 -9.2729 5.6558 32.8623 0.0000 -24.3270 7.2048 8.4417 1.2024 -5.8824 0.0000 -0.0000 -20.0937 26.6439 4.8862 25.4553 -0.0000 -0.0000 6.7278 -8.4748 0.7185 -3.5853 -0.0000 0.0000 -19.2265 -26.0855 1.4580 23.5603 0.0000 -0.0000
 20.1308 35.3376 -24.9018 120.0327 86.2653 -121.4208 -12.4357 -0.1702 2.0904 4.3124 1.5884 -2.6066 -32.1371 7.0878 17.4271 -0.9043 -2.8832 -9.1126 2.4708 0.0000 7.7071 0.6544 9.9189 -3.7939 33.1476 -0.0000 26.2537 3.9820 -15.3522 -10.6169 -41.9155 -1.8290 11.3276 5.5852 -0.0000 36.0040 0.9114 -9.2682 5.6411 32.8623 0.0000 -24.3270 7.1978 8.4583 1.2053 -5.8708 0.0000 0.0000 -20.0929 26.6269 4.8833 25.4543 0.0000 0.0000 6.7190 -8.4865 0.7178 -3.5711 0.0000 0.0000 -19.2154 -26.0681 1.4967 23.5211 0.0000 -0.0000
 20.1282 35.3379 -24.9021 119.9363 86.2721 -121.3226 -12.4182 -0.1615 2.0843 4.3378 1.5771 -2.6087 -32.1184 7.1050 17.4252 -0.9276 -2.9070 -9.1191 2.4693 0.0000 7.7223 0.6529 9.9364 -3.7787 33.1476 -0.0000 26.2537 3.9715 -15.3459 -10.6152 -41.8768 -1.8302 11.3323 5.5874 -0.0000 35.9921 0.9142 -9.2614 5.6627 32.8623 0.0000 -24.3270 7.1939 8.4686 1.2008 -5.8645 0.0000 0.0000 -20.0924 26.6321 4.8759 25.4533 -0.0000 0.0000 6.7152 -8.4689 0.7138 -3.5708 0.0000 0.0000 -19.2129 -26.0749 1.4846 23.4995 0.0000 -0.0000
 20.1254 35.3384 -24.9018 119.8167 86.2778 -121.2042 -12.4046 -0.1520 2.0803 4.3796 1.5733 -2.6056 -32.1048 7.1136 17.4240 -0.9487 -2.9187 -9.1272 2.4633 0.0000 7.7417 0.6499 9.9121 -3.7702 33.1476 -0.0000 26.2537 4.0079 -15.3622 -10.5983 -41.9005 -1.8125 11.3501 5.5708 -0.0000 35.9854 0.9132 -9.2592 5.6578 32.8623 0.0000 -24.3270 7.1867 8.4651 1.2017 -5.8557 -0.0000 -0.0000 -20.0943 26.6433 4.8890 25.4379 -0.0000 0.0000 6.7102 -8.4542 0.7130 -3.5696 -0.0000 -0.0000 -19.2111 -26.0746 1.4857 23.5422 0.0000 -0.0000
 20.1218 35.3385 -24.9027 119.5987 86.2789 -120.9801 -12.4010 -0.1347 2.0718 4.4140 1.5608 -2.6218 -32.0982 7.1100 17.4092 -0.8984 -2.9352 -9.1213 2.4568 0.0000 7.7082 0.6493 9.9147 -3.7660 33.1476 -0.0000 26.2537 4.0430 -15.3858 -10.5836 -41.9459 -1.7896 11.3732 5.5531 -0.0000 35.9968 0.9129 -9.2584 5.6564 32.8623 0.0000 -24.3270 7.1728 8.4670 1.1924 -5.8469 0.0000 -0.0000 -20.0991 26.6577 4.8948 25.4080 0.0000 -0.0000 6.6923 -8.4376 0.7023 -3.5640 0.0000 0.0000 -19.2114 -26.0691 1.4717 23.4345 -0.0000 0.0000
 20.1194 35.3389 -24.9032 119.4865 86.2780 -120.8641 -12.3925 -0.1470 2.0621 4.4436 1.5690 -2.6159 -32.0882 7.1378 17.4162 -0.8909 -2.9584 -9.1293 2.4622 0.0000 7.7113 0.6468 9.8685 -3.7687 33.1476 -0.0000 26.2537 4.0495 -15.3645 -10.5724 -41.9492 -1.7930 11.3716 5.5598 -0.0000 35.9902 0.9158 -9.2520 5.6782 32.8623 0.0000 -24.3270 7.1622 8.4719 1.1888 -5.8383 -0.0000 -0.0000 -20.1001 26.6451 4.8936 25.4350 0.0000 -0.0000 6.6869 -8.4374 0.6951 -3.5711 0.0000 -0.0000 -19.2118 -26.0609 1.4772 23.5676 -0.0000 0.0000
 20.1162 35.3393 -24.9028 119.1979 86.2879 -120.5794 -12.3775 -0.1228 2.0658 4.4701 1.5540 -2.6192 -32.0854 7.1408 17.4060 -0.8975 -2.9644 -9.1337 2.4395 0.0000 7.7320 0.6535 9.8652 -3.8091 33.1476 -0.0000 26.2537 4.0616 -15.3796 -10.5672 -41.9850 -1.7969 11.3953 5.5702 -0.0000 36.0099 0.9161 -9.2588 5.6755 32.8623 0.0000 -24.3270 7.1538 8.4891 1.1900 -5.8304 0.0000 0.0000 -20.1093 26.6295 4.9015 25.4597 -0.0000 -0.0000 6.6761 -8.4204 0.6956 -3.5682 0.0000 -0.0000 -19.2014 -26.0577 1.4886 23.5108 -0.0000 0.0000
 20.1132 35.3393 -24.9025 118.9763 86.2983 -120.3575 -12.3657 -0.1083 2.0597 4.5238 1.5573 -2.6118 -32.0575 7.1531 17.4037 -0.9051 -2.9843 -9.1460 2.4449 0.0000 7.7337 0.6543 9.8175 -3.8316 33.1476 -0.0000 26.2537 4.0640 -15.3709 -10.5523 -41.9612 -1.7919 11.3984 5.5715 -0.0000 36.0070 0.9119 -9.2545 5.6524 32.8623 0.0000 -24.3270 7.1522 8.4790 1.1897 -5.8253 0.0000 0.0000 -20.1188 26.6663 4.9192 25.4500 0.0000 -0.0000 6.6693 -8.4127 0.6920 -3.5651 0.0000 0.0000 -19.2036 -26.0436 1.5032 23.5142 -0.0000 -0.0000
 20.1104 35.3394 -24.9028 118.7698 86.3137 -120.1512 -12.3424 -0.0877 2.0559 4.5656 1.5436 -2.6071 -32.0641 7.1438 17.3995 -0.8818 -2.9823 -9.1593 2.4289 0.0000 7.7201 0.6533 9.8274 -3.8221 33.1476 -0.0000 26.2537 4.0815 -15.3708 -10.5317 -41.9755 -1.7898 11.4015 5.5723 -0.0000 36.0209 0.9099 -9.2411 5.6483 32.8623 0.0000 -24.3270 7.1534 8.4804 1.1877 -5.8152 -0.0000 -0.0000 -20.1360 26.6721 4.9368 25.4518 -0.0000 0.0000 6.6727 -8.4059 0.6894 -3.5722 0.0000 -0.0000 -19.1935 -26.0325 1.5008 23.5335 0.0000 -0.0000
 20.1072 35.3394 -24.9028 118.5064 86.3229 -119.8856 -12.3263 -0.0708 2.0481 4.6114 1.5472 -2.6037 -32.0232 7.1625 17.3953 -0.9406 -2.9886 -9.1753 2.4114 0.0000 7.7355 0.6577 9.8836 -3.8260 33.1476 -0.0000 26.2537 4.0845 -15.3623 -10.5174 -41.9624 -1.7995 11.4085 5.6031 -0.0000 36.0334 0.8964 -9.2562 5.5560 32.8623 0.0000 -24.3270 7.1452 8.4836 1.1851 -5.8044 -0.0000 0.0000 -20.1320 26.6843 4.9435 25.4347 0.0000 -0.0000 6.6648 -8.3979 0.6831 -3.5739 0.0000 -0.0000 -19.1948 -26.0131 1.5083 23.5789 0.0000 -0.0000
 20.1034 35.3397 -24.9026 118.2317 86.3362 -119.6100 -12.3064 -0.0592 2.0384 4.6671 1.5620 -2.5884 -31.9981 7.1760 17.3947 -0.9329 -2.9989 -9.1949 2.4065 0.0000 7.7027 0.6453 9.9233 -3.7397 33.1476 -0.0000 26.2537 4.0902 -15.3429 -10.4896 -41.9023 -1.7902 11.4072 5.6207 -0.0000 36.0201 0.8943 -9.2602 5.5407 32.8623 0.0000 -24.3270 7.1357 8.4867 1.1827 -5.7840 0.0000 -0.0000 -20.1420 26.6945 4.9462 25.4298 -0.0000 -0.0000 6.6644 -8.3813 0.6801 -3.5865 0.0000 0.0000 -19.1754 -26.0019 1.4970 23.5118 0.0000 -0.0000
 20.1004 35.3399 -24.9033 117.9206 86.3635 -119.2936 -12.2689 -0.0237 2.0296 4.7080 1.5426 -2.5858 -31.9970 7.1778 17.3905 -0.9421 -3.0047 -9.2253 2.4076 0.0000 7.6944 0.6253 9.8937 -3.6347 33.1476 -0.0000 26.2537 4.1203 -15.3502 -10.4612 -41.8855 -1.7920 11.4218 5.6540 -0.0000 36.0391 0.8910 -9.2806 5.5086 32.8623 0.0000 -24.3270 7.1413 8.4956 1.1733 -5.7666 0.0000 0.0000 -20.1573 26.7108 4.9760 25.4936 -0.0000 -0.0000 6.6710 -8.3615 0.6679 -3.5901 -0.0000 -0.0000 -19.1793 -25.9886 1.4937 23.6072 -0.0000 -0.0000
